HIERARCHY
ROOT root
{
	OFFSET 0.000000 0.000000 0.000000
	CHANNELS 6 Xposition Yposition Zposition Zrotation Yrotation Xrotation
	JOINT lhip
	{
		OFFSET 0.058581 -0.082280 -0.017664
		CHANNELS 3 Zrotation Yrotation Xrotation
		JOINT lknee
		{
			OFFSET 0.043451 -0.386469 0.008037
			CHANNELS 3 Zrotation Yrotation Xrotation
			JOINT lankle
			{
				OFFSET -0.014790 -0.426874 -0.037428
				CHANNELS 3 Zrotation Yrotation Xrotation
				JOINT ltoe
				{
					OFFSET 0.041054 -0.060286 0.122042
					CHANNELS 3 Zrotation Yrotation Xrotation
					End Site
					{
						OFFSET 0.000000 0.000000 0.000000
					}
				}
			}
		}
	}
	JOINT rhip
	{
		OFFSET -0.060310 -0.090513 -0.013543
		CHANNELS 3 Zrotation Yrotation Xrotation
		JOINT rknee
		{
			OFFSET -0.043257 -0.383688 -0.004843
			CHANNELS 3 Zrotation Yrotation Xrotation
			JOINT rankle
			{
				OFFSET 0.019056 -0.420046 -0.034562
				CHANNELS 3 Zrotation Yrotation Xrotation
				JOINT rtoe
				{
					OFFSET -0.034840 -0.062106 0.130323
					CHANNELS 3 Zrotation Yrotation Xrotation
					End Site
					{
						OFFSET 0.000000 0.000000 0.000000
					}
				}
			}
		}
	}
	JOINT lowerback
	{
		OFFSET 0.004439 0.124404 -0.038385
		CHANNELS 3 Zrotation Yrotation Xrotation
		JOINT upperback
		{
			OFFSET 0.004488 0.137956 0.026820
			CHANNELS 3 Zrotation Yrotation Xrotation
			JOINT chest
			{
				OFFSET -0.002265 0.056032 0.002855
				CHANNELS 3 Zrotation Yrotation Xrotation
				JOINT lowerneck
				{
					OFFSET -0.013390 0.211636 -0.033468
					CHANNELS 3 Zrotation Yrotation Xrotation
					JOINT upperneck
					{
						OFFSET 0.010113 0.088937 0.050410
						CHANNELS 3 Zrotation Yrotation Xrotation
						End Site
						{
							OFFSET 0.000000 0.000000 0.000000
						}
					}
				}
				JOINT lclavicle
				{
					OFFSET 0.071702 0.114000 -0.018898
					CHANNELS 3 Zrotation Yrotation Xrotation
					JOINT lshoulder
					{
						OFFSET 0.122921 0.045205 -0.019046
						CHANNELS 3 Zrotation Yrotation Xrotation
						JOINT lelbow
						{
							OFFSET 0.255332 -0.015649 -0.022946
							CHANNELS 3 Zrotation Yrotation Xrotation
							JOINT lwrist
							{
								OFFSET 0.265709 0.012698 -0.007375
								CHANNELS 3 Zrotation Yrotation Xrotation
								End Site
								{
									OFFSET 0.000000 0.000000 0.000000
								}
							}
						}
					}
				}
				JOINT rclavicle
				{
					OFFSET -0.082954 0.112472 -0.023707
					CHANNELS 3 Zrotation Yrotation Xrotation
					JOINT rshoulder
					{
						OFFSET -0.113228 0.046853 -0.008472
						CHANNELS 3 Zrotation Yrotation Xrotation
						JOINT relbow
						{
							OFFSET -0.260127 -0.014369 -0.031269
							CHANNELS 3 Zrotation Yrotation Xrotation
							JOINT rwrist
							{
								OFFSET -0.269108 0.006794 -0.006027
								CHANNELS 3 Zrotation Yrotation Xrotation
								End Site
								{
									OFFSET 0.000000 0.000000 0.000000
								}
							}
						}
					}
				}
			}
		}
	}
}
MOTION
Frames: 17
Frame Time: 0.033333
-0.242202 0.550858 0.867491 167.978137 0.162899 106.606031 14.200795 3.415831 -58.574017 -9.328974 14.232301 54.417367 3.177441 3.507514 -23.286071 0.000000 -0.000000 0.000000 -20.405963 -5.429337 -32.637428 -8.237350 -4.332874 56.914024 12.849264 -11.573627 -22.648190 0.000000 -0.000000 0.000000 -3.937295 7.307223 48.659288 -2.325092 -5.441598 -7.490783 0.555483 -1.619416 -3.673983 -18.390078 8.277309 -27.021204 -3.012480 3.678364 4.741597 -29.992033 -33.072671 6.104331 -53.656542 -25.844696 30.462059 -16.048825 -31.807079 46.433339 -2.185213 -17.845067 10.645966 32.532688 25.810986 10.332855 43.562411 5.745967 10.609654 -2.205984 23.036682 -30.403928 -4.919167 13.068827 -39.534355 
-0.252663 0.563820 0.875634 167.513572 1.019499 107.140703 14.182438 2.858284 -57.518008 -9.157978 14.095463 53.437282 3.519395 4.021905 -23.955574 0.000000 -0.000000 0.000000 -19.771073 -5.680246 -31.677503 -8.512418 -5.894923 53.940143 12.823920 -11.090600 -21.517298 0.000000 -0.000000 0.000000 -3.979941 7.521595 47.574939 -2.362273 -5.304938 -7.184631 0.645021 -1.206390 -4.009593 -17.779223 8.882318 -26.634197 -2.524166 2.605372 3.786283 -29.585346 -32.679814 6.232254 -52.220986 -25.133593 29.911604 -17.764400 -35.755504 48.549068 -5.020676 -17.750383 8.982673 32.217213 26.145389 10.830715 44.691480 6.315192 10.586635 -4.217642 20.554427 -28.241302 -2.207881 12.778727 -35.684704 
-0.261160 0.575248 0.883804 166.624834 1.845741 107.641473 14.534738 2.279500 -56.351725 -9.123547 14.150827 52.131710 3.794148 5.012755 -24.182751 0.000000 -0.000000 0.000000 -19.054300 -5.678422 -31.296849 -7.849796 -6.890207 51.443556 12.719058 -10.315389 -20.918038 0.000000 -0.000000 0.000000 -4.371250 7.947476 46.156541 -2.397511 -4.901245 -6.927514 0.611312 -0.995008 -4.081259 -16.945894 9.018355 -26.535825 -1.588848 1.608224 2.649124 -28.896848 -31.359392 5.904921 -50.359683 -24.615267 29.296478 -20.757911 -40.354695 52.321324 -6.731329 -17.683785 5.001955 32.146543 25.801061 10.945959 45.496781 6.525379 11.295794 -7.043200 20.310174 -25.050950 -0.389931 11.701817 -31.611103 
-0.268178 0.585003 0.891607 165.725527 2.488711 108.222441 14.969538 1.429754 -55.333307 -9.137174 14.231413 50.548492 4.132656 6.331109 -24.114956 0.000000 -0.000000 0.000000 -18.464868 -5.255656 -31.629891 -7.040671 -7.666798 49.896385 12.607646 -9.942082 -20.343381 0.000000 -0.000000 0.000000 -4.947978 8.463938 44.365253 -2.220915 -4.470491 -6.670261 0.590768 -0.874060 -4.055052 -16.192311 9.453274 -26.277801 -1.145468 0.489853 1.584775 -27.965953 -29.674394 5.323684 -48.228501 -24.497327 28.686393 -24.956021 -44.882915 55.720141 -7.024833 -17.896204 1.689215 31.848952 24.676327 10.584065 45.939354 6.518502 12.710287 -9.819839 22.584119 -21.759853 -0.034781 10.103889 -27.896795 
-0.273363 0.595720 0.900614 164.107924 2.629696 107.893659 14.236732 1.155107 -52.874088 -8.872978 13.928508 48.614343 4.354599 7.184616 -24.320182 0.000000 -0.000000 0.000000 -17.959093 -5.182491 -31.490382 -6.740474 -7.759827 48.417145 12.814624 -9.335371 -19.330768 0.000000 -0.000000 0.000000 -5.982847 9.221921 43.094703 -2.693903 -3.980343 -5.537787 0.839235 -0.969588 -4.615262 -15.698110 9.507626 -26.116096 -0.265313 -0.028208 0.040414 -28.179953 -28.168015 5.111319 -44.517553 -22.860110 27.429833 -28.380717 -50.749127 57.792275 -3.196894 -17.663373 0.206601 32.463249 24.037467 10.135692 45.313636 5.707087 14.000631 -12.013644 26.848983 -19.835273 -0.731410 8.970120 -24.616032 
-0.278209 0.607687 0.911848 163.294469 3.169612 108.262503 14.273763 0.229272 -50.932472 -9.076453 13.303406 45.738492 4.550691 8.667470 -23.765597 0.000000 -0.000000 0.000000 -16.570322 -4.617884 -32.211236 -5.752825 -8.403405 47.005358 12.096773 -9.603282 -18.814343 0.000000 -0.000000 0.000000 -6.827217 8.941375 40.057244 -2.433677 -3.549887 -5.294906 0.713801 -0.910679 -3.980722 -14.204952 9.621318 -25.555491 0.235018 -0.352369 -0.697537 -27.389301 -25.770312 4.714023 -39.646101 -20.952232 25.467553 -32.013803 -56.968215 57.364469 2.421694 -17.716070 -2.178062 31.870383 22.831248 9.528601 45.267795 5.860751 15.391577 -13.640005 32.528068 -19.522778 -2.052368 9.561334 -23.164264 
-0.279677 0.615597 0.918923 163.040328 3.244580 108.229734 13.658979 -0.203108 -49.296514 -9.210588 12.368306 43.744261 4.728896 9.465478 -23.558755 0.000000 -0.000000 0.000000 -15.667637 -4.403136 -32.421541 -5.430259 -8.925018 46.087685 11.728185 -10.157677 -18.668339 0.000000 -0.000000 0.000000 -7.221684 8.471317 38.308757 -2.418131 -3.313000 -5.173662 0.707338 -1.049355 -3.711592 -13.370862 9.734226 -25.147605 0.489047 0.086988 -0.815051 -26.749318 -24.099137 4.539888 -36.857765 -19.368521 23.822353 -31.979833 -59.645586 55.385163 6.733567 -17.470148 -2.793243 31.283908 22.275047 8.897245 45.769011 6.051559 15.958433 -14.058448 35.060324 -20.318032 -2.762797 10.647828 -24.797202 
-0.279448 0.623214 0.925548 162.811823 3.432409 108.082520 13.215452 -0.322678 -47.659165 -9.267597 11.530288 42.036729 4.636909 9.962604 -23.366432 0.000000 -0.000000 0.000000 -14.561075 -3.913787 -32.549936 -5.412474 -9.570566 45.168154 11.150541 -11.175341 -18.216847 0.000000 -0.000000 0.000000 -7.530736 7.922461 36.357424 -2.359123 -2.966881 -4.852436 0.723733 -1.050218 -3.363507 -12.509429 9.810296 -24.383156 0.478773 0.378706 -1.176045 -26.109689 -22.312140 4.096020 -34.386977 -17.956212 22.079268 -30.996861 -61.077271 53.905042 7.001839 -16.783735 -3.018101 30.916588 21.467413 8.374252 46.097190 6.458791 16.115846 -14.016423 37.360370 -20.805209 -2.337250 11.031522 -28.200363 
-0.277839 0.631325 0.931782 162.609407 3.495437 107.626960 12.530477 -0.384458 -45.763810 -9.008299 10.650632 40.627647 4.494558 10.172741 -23.262504 0.000000 -0.000000 0.000000 -13.575609 -3.572213 -32.422538 -5.491146 -10.211589 44.481175 10.720931 -11.340674 -17.932671 0.000000 -0.000000 0.000000 -7.577553 7.591787 34.828612 -2.378201 -2.521544 -4.625464 0.761380 -1.159072 -3.192498 -11.731120 10.140879 -23.259688 0.289087 0.518370 -1.332109 -25.527197 -20.880119 3.965865 -32.114144 -16.559304 19.859963 -29.640501 -61.449408 52.687601 4.330647 -16.562180 -1.621775 30.549457 20.539645 8.058162 46.780391 6.640089 15.641290 -13.920038 39.183510 -21.358336 -1.888142 11.773483 -31.562005 
-0.275614 0.638182 0.937327 162.698328 3.530343 107.489783 12.139957 -0.610870 -44.302232 -8.902490 9.920203 39.079733 4.543996 10.471240 -22.883468 0.000000 -0.000000 0.000000 -12.873828 -3.132722 -32.719329 -4.959645 -10.620877 43.851164 10.232711 -11.772640 -17.705622 0.000000 -0.000000 0.000000 -7.569564 7.060259 32.924851 -2.205671 -2.162131 -4.142774 0.669295 -1.064616 -3.041923 -11.133676 10.384697 -22.498271 -0.015011 0.688853 -1.339149 -25.182726 -19.721218 3.545768 -29.761768 -15.255360 18.414521 -28.205699 -61.121303 51.501510 2.182390 -15.783225 0.464569 30.409370 19.864201 7.926060 47.299552 6.388817 15.503486 -14.817077 40.909908 -22.714004 -1.520651 11.925970 -34.254796 
-0.272329 0.644412 0.942784 162.773723 3.364535 107.243807 11.676125 -0.852285 -42.571546 -8.973589 9.115112 37.141595 4.605033 10.873469 -22.350447 0.000000 -0.000000 0.000000 -12.498520 -2.840540 -33.213620 -4.876412 -11.162578 43.753772 9.831004 -12.580403 -16.558704 0.000000 -0.000000 0.000000 -7.662324 6.648279 31.386524 -2.079652 -1.858507 -3.722897 0.542985 -1.000548 -3.064303 -10.603070 10.889505 -21.521233 -0.140377 0.631499 -1.437752 -24.729059 -18.704464 3.320142 -27.544930 -13.982693 17.135326 -27.024105 -60.646179 50.088175 -0.581531 -15.276284 1.439579 30.435111 19.112055 7.866475 47.893984 6.258067 15.348894 -15.938146 41.801711 -23.728413 -0.676508 11.831939 -34.887235 
-0.268534 0.649812 0.947972 162.901249 3.298479 107.066044 11.362507 -0.785626 -40.991309 -9.135743 8.334872 35.258746 4.555402 11.077351 -21.673747 0.000000 -0.000000 0.000000 -12.364638 -2.723924 -34.053607 -5.251777 -12.120799 44.416820 9.753211 -13.951039 -14.610254 0.000000 -0.000000 0.000000 -7.606281 6.015894 30.115198 -1.913956 -1.455461 -3.787737 0.391302 -0.949916 -2.536461 -10.101858 11.249855 -21.549085 -0.590229 0.369338 -0.686630 -24.222521 -17.447449 3.018907 -25.851969 -13.174153 16.012466 -25.575700 -60.006546 48.871808 -2.046830 -15.233821 2.758738 30.326747 18.304453 7.282390 48.236852 6.311143 15.685618 -16.637603 41.989429 -23.465794 -0.048601 12.281142 -34.548504 
-0.263635 0.655238 0.953463 163.247228 3.209377 106.859575 10.945072 -0.392826 -39.277625 -9.378025 7.363042 33.202987 4.408696 11.072504 -20.985169 0.000000 -0.000000 0.000000 -12.244695 -3.072487 -34.617656 -4.694374 -11.977394 44.626562 10.141764 -12.742368 -13.577160 0.000000 -0.000000 0.000000 -7.425197 5.593551 28.921158 -1.561447 -1.342595 -3.493039 0.300218 -1.022132 -2.507684 -9.740836 11.746353 -20.877646 -0.813575 0.259150 -0.757564 -24.201554 -16.391577 2.804077 -24.146604 -11.955690 15.450085 -24.814414 -59.437054 47.617309 -2.061481 -15.543197 3.236499 30.706416 17.497172 7.041148 47.829823 6.254409 15.652851 -16.659038 41.980470 -22.636519 0.812584 12.276913 -33.299940 
-0.257654 0.659862 0.958426 163.698919 3.189290 106.620803 10.901488 -0.279338 -37.626868 -9.528684 6.607020 31.252743 4.314467 11.059668 -20.268538 0.000000 -0.000000 0.000000 -12.286300 -3.159158 -34.961369 -2.910948 -10.868682 43.853549 10.390002 -10.749994 -13.142207 0.000000 -0.000000 0.000000 -7.097300 5.149838 27.572757 -1.179047 -1.314429 -2.624797 0.153699 -1.005173 -2.682558 -9.363854 12.276707 -20.258074 -1.101738 0.097032 -0.732530 -24.297467 -15.641315 2.894816 -22.688824 -10.632617 14.979341 -23.726702 -59.678118 45.491568 -2.914188 -15.564104 3.060764 31.153144 16.956898 7.612157 47.021707 6.317771 15.144933 -16.572321 41.881251 -22.372307 1.805410 12.166403 -32.027057 
-0.251374 0.663163 0.962670 164.069331 3.121304 106.604408 10.809564 -0.020819 -36.347963 -9.637693 5.791454 29.425312 4.256808 11.093905 -19.515816 0.000000 -0.000000 0.000000 -12.693943 -3.064102 -35.722124 -1.539038 -10.149259 42.689808 10.405529 -10.213523 -11.973694 0.000000 -0.000000 0.000000 -6.816286 4.485780 26.566820 -1.054627 -0.908277 -2.657647 0.065404 -1.066827 -2.426831 -8.921340 12.184025 -20.076021 -1.176779 -0.080305 -0.136215 -24.501342 -14.415683 2.772744 -21.572263 -10.010577 14.318213 -22.930673 -59.790535 44.556872 -4.983655 -15.901966 3.302249 31.395106 16.163103 7.758879 46.516410 6.269476 15.054985 -16.692738 41.698663 -22.516340 2.106389 12.316916 -30.961310 
-0.244016 0.666052 0.965668 164.544944 3.136127 106.374150 10.933662 0.396539 -35.057077 -9.691765 5.205218 27.975204 3.912386 10.730492 -19.148684 0.000000 -0.000000 0.000000 -13.204892 -3.114803 -36.136534 -0.893759 -10.008514 41.385540 10.440739 -9.481648 -11.053337 0.000000 -0.000000 0.000000 -6.351429 3.820610 25.795760 -0.947571 -0.596677 -2.631366 0.003443 -0.970957 -2.368409 -8.378622 11.925927 -18.998429 -1.156719 -0.327319 0.067982 -24.720998 -13.483306 2.985040 -21.092584 -9.303987 13.582928 -21.074908 -60.475210 42.261868 -6.192449 -16.201506 3.664327 31.552613 15.504280 8.218070 45.789374 5.924610 14.545178 -16.347247 41.895871 -22.099587 2.131009 12.072651 -30.597945 
-0.235360 0.668805 0.968018 165.245468 3.210913 106.121905 11.202721 0.775922 -33.977737 -9.680974 4.471180 26.951470 3.333195 10.327144 -19.021325 0.000000 -0.000000 0.000000 -13.521470 -3.511457 -36.246564 -0.724112 -9.798893 39.369073 11.267998 -8.294688 -10.723970 0.000000 -0.000000 0.000000 -5.781767 3.327593 25.400164 -0.736792 -0.489934 -2.616400 0.131889 -0.911334 -2.152914 -8.199733 11.437339 -18.936330 -1.086770 -0.725786 0.296479 -24.957195 -12.290118 2.552233 -21.321398 -9.077956 13.022562 -19.220897 -61.333644 40.010465 -5.505387 -16.169481 3.324759 31.502018 14.457476 7.418578 44.987677 5.233266 14.207546 -15.522057 42.624007 -20.889105 2.346042 12.059403 -30.127080 
